<svg width="400" height="400" viewBox="0 0 400 400" fill="none" xmlns="http://www.w3.org/2000/svg">
<path d="M50 300H76.347C108.479 300 124.545 300 138.103 292.112C150.118 285.122 158.484 272.913 172.637 250" stroke="white" stroke-width="16" stroke-linecap="round" stroke-linejoin="round"/>
<path d="M325.96 333.333L340.918 317.072C347.602 309.805 350.943 306.173 349.768 303.087C348.592 300 343.867 300 334.415 300C313.26 300 287.952 303.418 268.518 292.112C254.96 284.223 246.048 269.692 228.225 240.627L178.397 159.373C160.573 130.309 151.662 115.777 138.103 107.888C124.545 100 108.479 100 76.347 100H50" stroke="white" stroke-width="16" stroke-linecap="round" stroke-linejoin="round"/>
<path d="M339.479 147.908C341.458 150.683 342.448 152.071 342.448 154.125C342.448 156.179 341.458 157.567 339.479 160.342C330.585 172.814 307.872 199.698 277.344 199.698C246.815 199.698 224.102 172.814 215.209 160.342C213.229 157.567 212.24 156.179 212.24 154.125C212.24 152.071 213.229 150.683 215.209 147.908C224.102 135.436 246.815 108.552 277.344 108.552C307.872 108.552 330.585 135.436 339.479 147.908Z" stroke="white" stroke-width="16"/>
<path d="M296.875 154.125C296.875 143.338 288.131 134.594 277.344 134.594C266.557 134.594 257.812 143.338 257.812 154.125C257.812 164.912 266.557 173.656 277.344 173.656C288.131 173.656 296.875 164.912 296.875 154.125Z" stroke="white" stroke-width="16"/>
</svg>
