<svg width="1018" height="400" viewBox="0 0 1018 400" fill="none" xmlns="http://www.w3.org/2000/svg">
<path d="M50 300H76.347C108.479 300 124.545 300 138.103 292.112C150.118 285.122 158.484 272.913 172.637 250" stroke="#1DB954" stroke-width="16" stroke-linecap="round" stroke-linejoin="round"/>
<path d="M325.96 333.333L340.918 317.072C347.602 309.805 350.943 306.173 349.768 303.087C348.592 300 343.867 300 334.415 300C313.26 300 287.952 303.418 268.518 292.112C254.96 284.223 246.048 269.692 228.225 240.627L178.397 159.373C160.573 130.309 151.662 115.777 138.103 107.888C124.545 100 108.479 100 76.347 100H50" stroke="#1DB954" stroke-width="16" stroke-linecap="round" stroke-linejoin="round"/>
<path d="M339.479 147.908C341.458 150.683 342.448 152.071 342.448 154.125C342.448 156.179 341.458 157.567 339.479 160.342C330.585 172.814 307.872 199.698 277.344 199.698C246.815 199.698 224.102 172.814 215.209 160.342C213.229 157.567 212.24 156.179 212.24 154.125C212.24 152.071 213.229 150.683 215.209 147.908C224.102 135.436 246.815 108.552 277.344 108.552C307.872 108.552 330.585 135.436 339.479 147.908Z" stroke="#1DB954" stroke-width="16"/>
<path d="M296.875 154.125C296.875 143.338 288.131 134.594 277.344 134.594C266.557 134.594 257.812 143.338 257.812 154.125C257.812 164.912 266.557 173.656 277.344 173.656C288.131 173.656 296.875 164.912 296.875 154.125Z" stroke="#1DB954" stroke-width="16"/>
<path d="M440.56 185.98C434.027 185.98 428.147 184.86 422.92 182.62C417.693 180.287 413.587 177.02 410.6 172.82C407.613 168.62 406.12 163.72 406.12 158.12H423.2C423.573 162.32 425.207 165.773 428.1 168.48C431.087 171.187 435.24 172.54 440.56 172.54C446.067 172.54 450.36 171.233 453.44 168.62C456.52 165.913 458.06 162.46 458.06 158.26C458.06 154.993 457.08 152.333 455.12 150.28C453.253 148.227 450.873 146.64 447.98 145.52C445.18 144.4 441.26 143.187 436.22 141.88C429.873 140.2 424.693 138.52 420.68 136.84C416.76 135.067 413.4 132.36 410.6 128.72C407.8 125.08 406.4 120.227 406.4 114.16C406.4 108.56 407.8 103.66 410.6 99.46C413.4 95.26 417.32 92.04 422.36 89.8C427.4 87.56 433.233 86.44 439.86 86.44C449.287 86.44 456.987 88.82 462.96 93.58C469.027 98.2467 472.387 104.687 473.04 112.9H455.4C455.12 109.353 453.44 106.32 450.36 103.8C447.28 101.28 443.22 100.02 438.18 100.02C433.607 100.02 429.873 101.187 426.98 103.52C424.087 105.853 422.64 109.213 422.64 113.6C422.64 116.587 423.527 119.06 425.3 121.02C427.167 122.887 429.5 124.38 432.3 125.5C435.1 126.62 438.927 127.833 443.78 129.14C450.22 130.913 455.447 132.687 459.46 134.46C463.567 136.233 467.02 138.987 469.82 142.72C472.713 146.36 474.16 151.26 474.16 157.42C474.16 162.367 472.807 167.033 470.1 171.42C467.487 175.807 463.613 179.353 458.48 182.06C453.44 184.673 447.467 185.98 440.56 185.98ZM532.892 106.6C538.772 106.6 543.999 107.86 548.572 110.38C553.239 112.9 556.879 116.633 559.492 121.58C562.199 126.527 563.552 132.5 563.552 139.5V185H547.732V141.88C547.732 134.973 546.006 129.7 542.552 126.06C539.099 122.327 534.386 120.46 528.412 120.46C522.439 120.46 517.679 122.327 514.132 126.06C510.679 129.7 508.952 134.973 508.952 141.88V185H492.992V81.4H508.952V116.82C511.659 113.553 515.066 111.033 519.172 109.26C523.372 107.487 527.946 106.6 532.892 106.6ZM653.77 107.86V185H637.81V175.9C635.29 179.073 631.977 181.593 627.87 183.46C623.857 185.233 619.563 186.12 614.99 186.12C608.923 186.12 603.463 184.86 598.61 182.34C593.85 179.82 590.07 176.087 587.27 171.14C584.563 166.193 583.21 160.22 583.21 153.22V107.86H599.03V150.84C599.03 157.747 600.757 163.067 604.21 166.8C607.663 170.44 612.377 172.26 618.35 172.26C624.323 172.26 629.037 170.44 632.49 166.8C636.037 163.067 637.81 157.747 637.81 150.84V107.86H653.77ZM707.168 120.88H692.888V185H676.788V120.88H667.688V107.86H676.788V102.4C676.788 93.5333 679.121 87.0933 683.788 83.08C688.548 78.9733 695.968 76.92 706.048 76.92V90.22C701.195 90.22 697.788 91.1533 695.828 93.02C693.868 94.7933 692.888 97.92 692.888 102.4V107.86H707.168V120.88ZM753.653 120.88H739.373V185H723.273V120.88H714.173V107.86H723.273V102.4C723.273 93.5333 725.606 87.0933 730.273 83.08C735.033 78.9733 742.453 76.92 752.533 76.92V90.22C747.679 90.22 744.273 91.1533 742.313 93.02C740.353 94.7933 739.373 97.92 739.373 102.4V107.86H753.653V120.88ZM783.757 81.4V185H767.797V81.4H783.757ZM875.411 144.54C875.411 147.433 875.224 150.047 874.851 152.38H815.911C816.378 158.54 818.664 163.487 822.771 167.22C826.878 170.953 831.918 172.82 837.891 172.82C846.478 172.82 852.544 169.227 856.091 162.04H873.311C870.978 169.133 866.731 174.967 860.571 179.54C854.504 184.02 846.944 186.26 837.891 186.26C830.518 186.26 823.891 184.627 818.011 181.36C812.224 178 807.651 173.333 804.291 167.36C801.024 161.293 799.391 154.293 799.391 146.36C799.391 138.427 800.978 131.473 804.151 125.5C807.418 119.433 811.944 114.767 817.731 111.5C823.611 108.233 830.331 106.6 837.891 106.6C845.171 106.6 851.658 108.187 857.351 111.36C863.044 114.533 867.478 119.013 870.651 124.8C873.824 130.493 875.411 137.073 875.411 144.54ZM858.751 139.5C858.658 133.62 856.558 128.907 852.451 125.36C848.344 121.813 843.258 120.04 837.191 120.04C831.684 120.04 826.971 121.813 823.051 125.36C819.131 128.813 816.798 133.527 816.051 139.5H858.751ZM478.92 263.7C476.4 258.847 472.9 255.207 468.42 252.78C463.94 250.26 458.76 249 452.88 249C446.44 249 440.7 250.447 435.66 253.34C430.62 256.233 426.653 260.34 423.76 265.66C420.96 270.98 419.56 277.14 419.56 284.14C419.56 291.14 420.96 297.347 423.76 302.76C426.653 308.08 430.62 312.187 435.66 315.08C440.7 317.973 446.44 319.42 452.88 319.42C461.56 319.42 468.607 316.993 474.02 312.14C479.433 307.287 482.747 300.707 483.96 292.4H447.42V279.66H501.04V292.12C500.013 299.68 497.307 306.633 492.92 312.98C488.627 319.327 482.98 324.413 475.98 328.24C469.073 331.973 461.373 333.84 452.88 333.84C443.733 333.84 435.38 331.74 427.82 327.54C420.26 323.247 414.24 317.32 409.76 309.76C405.373 302.2 403.18 293.66 403.18 284.14C403.18 274.62 405.373 266.08 409.76 258.52C414.24 250.96 420.26 245.08 427.82 240.88C435.473 236.587 443.827 234.44 452.88 234.44C463.24 234.44 472.433 237.007 480.46 242.14C488.58 247.18 494.46 254.367 498.1 263.7H478.92ZM532.741 229.4V333H516.781V229.4H532.741ZM561.815 245.64C558.922 245.64 556.495 244.66 554.535 242.7C552.575 240.74 551.595 238.313 551.595 235.42C551.595 232.527 552.575 230.1 554.535 228.14C556.495 226.18 558.922 225.2 561.815 225.2C564.615 225.2 566.995 226.18 568.955 228.14C570.915 230.1 571.895 232.527 571.895 235.42C571.895 238.313 570.915 240.74 568.955 242.7C566.995 244.66 564.615 245.64 561.815 245.64ZM569.655 255.86V333H553.695V255.86H569.655ZM683.989 254.6C690.056 254.6 695.469 255.86 700.229 258.38C705.083 260.9 708.863 264.633 711.569 269.58C714.369 274.527 715.769 280.5 715.769 287.5V333H699.949V289.88C699.949 282.973 698.223 277.7 694.769 274.06C691.316 270.327 686.603 268.46 680.629 268.46C674.656 268.46 669.896 270.327 666.349 274.06C662.896 277.7 661.169 282.973 661.169 289.88V333H645.349V289.88C645.349 282.973 643.623 277.7 640.169 274.06C636.716 270.327 632.003 268.46 626.029 268.46C620.056 268.46 615.296 270.327 611.749 274.06C608.296 277.7 606.569 282.973 606.569 289.88V333H590.609V255.86H606.569V264.68C609.183 261.507 612.496 259.033 616.509 257.26C620.523 255.487 624.816 254.6 629.389 254.6C635.549 254.6 641.056 255.907 645.909 258.52C650.763 261.133 654.496 264.913 657.109 269.86C659.443 265.193 663.083 261.507 668.029 258.8C672.976 256 678.296 254.6 683.989 254.6ZM752.038 267.2C754.745 263.653 758.431 260.667 763.098 258.24C767.765 255.813 773.038 254.6 778.918 254.6C785.638 254.6 791.751 256.28 797.258 259.64C802.858 262.907 807.245 267.527 810.418 273.5C813.591 279.473 815.178 286.333 815.178 294.08C815.178 301.827 813.591 308.78 810.418 314.94C807.245 321.007 802.858 325.767 797.258 329.22C791.751 332.58 785.638 334.26 778.918 334.26C773.038 334.26 767.811 333.093 763.238 330.76C758.665 328.333 754.931 325.347 752.038 321.8V369.68H736.078V255.86H752.038V267.2ZM798.938 294.08C798.938 288.76 797.818 284.187 795.578 280.36C793.431 276.44 790.538 273.5 786.898 271.54C783.351 269.487 779.525 268.46 775.418 268.46C771.405 268.46 767.578 269.487 763.938 271.54C760.391 273.593 757.498 276.58 755.258 280.5C753.111 284.42 752.038 289.04 752.038 294.36C752.038 299.68 753.111 304.347 755.258 308.36C757.498 312.28 760.391 315.267 763.938 317.32C767.578 319.373 771.405 320.4 775.418 320.4C779.525 320.4 783.351 319.373 786.898 317.32C790.538 315.173 793.431 312.093 795.578 308.08C797.818 304.067 798.938 299.4 798.938 294.08ZM858.961 334.26C852.894 334.26 847.434 333.187 842.581 331.04C837.821 328.8 834.041 325.813 831.241 322.08C828.441 318.253 826.948 314.007 826.761 309.34H843.281C843.561 312.607 845.101 315.36 847.901 317.6C850.794 319.747 854.388 320.82 858.681 320.82C863.161 320.82 866.614 319.98 869.041 318.3C871.561 316.527 872.821 314.287 872.821 311.58C872.821 308.687 871.421 306.54 868.621 305.14C865.914 303.74 861.574 302.2 855.601 300.52C849.814 298.933 845.101 297.393 841.461 295.9C837.821 294.407 834.648 292.12 831.941 289.04C829.328 285.96 828.021 281.9 828.021 276.86C828.021 272.753 829.234 269.02 831.661 265.66C834.088 262.207 837.541 259.5 842.021 257.54C846.594 255.58 851.821 254.6 857.701 254.6C866.474 254.6 873.521 256.84 878.841 261.32C884.254 265.707 887.148 271.727 887.521 279.38H871.561C871.281 275.927 869.881 273.173 867.361 271.12C864.841 269.067 861.434 268.04 857.141 268.04C852.941 268.04 849.721 268.833 847.481 270.42C845.241 272.007 844.121 274.107 844.121 276.72C844.121 278.773 844.868 280.5 846.361 281.9C847.854 283.3 849.674 284.42 851.821 285.26C853.968 286.007 857.141 286.987 861.341 288.2C866.941 289.693 871.514 291.233 875.061 292.82C878.701 294.313 881.828 296.553 884.441 299.54C887.054 302.527 888.408 306.493 888.501 311.44C888.501 315.827 887.288 319.747 884.861 323.2C882.434 326.653 878.981 329.36 874.501 331.32C870.114 333.28 864.934 334.26 858.961 334.26ZM976.446 292.54C976.446 295.433 976.259 298.047 975.886 300.38H916.946C917.413 306.54 919.699 311.487 923.806 315.22C927.913 318.953 932.953 320.82 938.926 320.82C947.513 320.82 953.579 317.227 957.126 310.04H974.346C972.013 317.133 967.766 322.967 961.606 327.54C955.539 332.02 947.979 334.26 938.926 334.26C931.553 334.26 924.926 332.627 919.046 329.36C913.259 326 908.686 321.333 905.326 315.36C902.059 309.293 900.426 302.293 900.426 294.36C900.426 286.427 902.013 279.473 905.186 273.5C908.453 267.433 912.979 262.767 918.766 259.5C924.646 256.233 931.366 254.6 938.926 254.6C946.206 254.6 952.693 256.187 958.386 259.36C964.079 262.533 968.513 267.013 971.686 272.8C974.859 278.493 976.446 285.073 976.446 292.54ZM959.786 287.5C959.693 281.62 957.593 276.907 953.486 273.36C949.379 269.813 944.293 268.04 938.226 268.04C932.719 268.04 928.006 269.813 924.086 273.36C920.166 276.813 917.833 281.527 917.086 287.5H959.786Z" fill="#1DB954"/>
</svg>
